<?xml version="1.0" encoding="UTF-8" standalone="no"?>
<!-- Created with Inkscape (http://www.inkscape.org/) -->
<svg
   xmlns:dc="http://purl.org/dc/elements/1.1/"
   xmlns:cc="http://creativecommons.org/ns#"
   xmlns:rdf="http://www.w3.org/1999/02/22-rdf-syntax-ns#"
   xmlns:svg="http://www.w3.org/2000/svg"
   xmlns="http://www.w3.org/2000/svg"
   xmlns:sodipodi="http://sodipodi.sourceforge.net/DTD/sodipodi-0.dtd"
   xmlns:inkscape="http://www.inkscape.org/namespaces/inkscape"
   width="744.09448819"
   height="1052.3622047"
   id="svg2"
   sodipodi:version="0.32"
   inkscape:version="0.46"
   sodipodi:docname="usb.svg"
   inkscape:output_extension="org.inkscape.output.svg.inkscape">
  <defs
     id="defs4">
    <inkscape:perspective
       sodipodi:type="inkscape:persp3d"
       inkscape:vp_x="0 : 526.18109 : 1"
       inkscape:vp_y="0 : 1000 : 0"
       inkscape:vp_z="744.09448 : 526.18109 : 1"
       inkscape:persp3d-origin="372.04724 : 350.78739 : 1"
       id="perspective10" />
    <inkscape:perspective
       id="perspective2390"
       inkscape:persp3d-origin="372.04724 : 350.78739 : 1"
       inkscape:vp_z="744.09448 : 526.18109 : 1"
       inkscape:vp_y="0 : 1000 : 0"
       inkscape:vp_x="0 : 526.18109 : 1"
       sodipodi:type="inkscape:persp3d" />
  </defs>
  <sodipodi:namedview
     id="base"
     pagecolor="#000000"
     bordercolor="#666666"
     borderopacity="1.0"
     gridtolerance="10000"
     guidetolerance="10"
     objecttolerance="10"
     inkscape:pageopacity="1"
     inkscape:pageshadow="2"
     inkscape:zoom="0.50362889"
     inkscape:cx="372.04724"
     inkscape:cy="526.18109"
     inkscape:document-units="px"
     inkscape:current-layer="layer1"
     showgrid="false"
     inkscape:window-width="1014"
     inkscape:window-height="725"
     inkscape:window-x="0"
     inkscape:window-y="0" />
  <metadata
     id="metadata7">
    <rdf:RDF>
      <cc:Work
         rdf:about="">
        <dc:format>image/svg+xml</dc:format>
        <dc:type
           rdf:resource="http://purl.org/dc/dcmitype/StillImage" />
      </cc:Work>
    </rdf:RDF>
  </metadata>
  <g
     inkscape:label="Layer 1"
     inkscape:groupmode="layer"
     id="layer1">
    <path
       style="fill:#ffffff;fill-opacity:1;stroke:none;stroke-width:1.5;stroke-miterlimit:4;stroke-dasharray:none;stroke-opacity:1"
       d="M 372.04724,291.39307 L 322.49075,373.71819 L 353.80658,374.04104 L 353.80658,578.56248 L 317.32525,542.72683 L 318.61662,515.93081 C 327.71033,509.28034 333.62885,498.51146 333.62885,486.39062 C 333.62885,466.21563 317.32251,449.74782 297.14752,449.74787 C 276.97253,449.74787 260.50477,466.21563 260.50477,486.39062 C 260.50477,502.29643 270.84718,515.75405 285.04089,520.77347 L 284.07236,551.44361 L 353.80658,625.69764 L 353.80658,648.61954 C 330.71293,656.13544 313.93539,677.75109 313.93539,703.34154 C 313.93539,735.15594 339.74857,760.96907 371.56298,760.96912 C 403.37738,760.96912 429.19057,735.15594 429.19057,703.34154 C 429.19057,678.11882 413.02808,656.75029 390.44933,648.94239 L 390.44933,582.27518 L 461.47493,506.89119 L 462.12061,464.7601 L 483.58972,464.7601 L 483.58972,392.60455 L 411.43417,392.60455 L 411.43417,464.7601 L 429.51341,464.7601 L 429.99767,496.39877 L 390.44933,535.14001 L 390.44933,374.5253 L 421.76516,374.84815 L 372.04724,291.39307 z"
       id="rect2400" />
  </g>
</svg>
